<?xml version="1.0" encoding="UTF-8" standalone="no"?>
<!DOCTYPE svg PUBLIC "-//W3C//DTD SVG 1.1//EN" "http://www.w3.org/Graphics/SVG/1.1/DTD/svg11.dtd">
<svg width="100%" height="100%" viewBox="0 0 396 238" version="1.1" xmlns="http://www.w3.org/2000/svg" xmlns:xlink="http://www.w3.org/1999/xlink" xml:space="preserve" xmlns:serif="http://www.serif.com/" style="fill-rule:evenodd;clip-rule:evenodd;stroke-linejoin:round;stroke-miterlimit:2;">
    <g transform="matrix(1,0,0,1,-314.373,-181.205)">
        <g transform="matrix(1,0,0,1,2.27374e-13,27.0836)">
            <g transform="matrix(13.234,0,0,13.234,-3534.09,-1985.57)">
                <g transform="matrix(12,0,0,12,290.656,169.96)">
                    <path d="M0.012,-0L0.182,-0L0.182,-0.1L0.332,-0.1L0.332,-0L0.502,-0L0.502,-0.69C0.217,-0.69 0.012,-0.543 0.012,-0.214L0.012,-0ZM0.184,-0.265C0.194,-0.376 0.24,-0.455 0.332,-0.491L0.332,-0.265L0.184,-0.265Z" style="fill:rgb(255,41,117);fill-rule:nonzero;"/>
                </g>
                <g transform="matrix(12,0,0,12,299.26,169.96)">
                    <path d="M0.015,-0L0.185,-0L0.185,-0.48C0.291,-0.445 0.34,-0.352 0.34,-0.214L0.34,-0L0.51,-0L0.51,-0.69L0.34,-0.69L0.34,-0.571C0.262,-0.646 0.153,-0.69 0.015,-0.69L0.015,-0Z" style="fill:rgb(255,41,117);fill-rule:nonzero;"/>
                </g>
                <g transform="matrix(12,0,0,12,305.56,169.96)">
                    <path d="M0.015,-0L0.451,-0L0.451,-0.165L0.185,-0.165L0.185,-0.265L0.365,-0.265L0.365,-0.425L0.185,-0.425L0.185,-0.525L0.451,-0.525L0.451,-0.69L0.015,-0.69L0.015,-0Z" style="fill:rgb(255,41,117);fill-rule:nonzero;"/>
                </g>
                <g transform="matrix(12,0,0,12,311.152,169.96)">
                    <path d="M0.254,0.01C0.311,0.01 0.369,-0.009 0.404,-0.055C0.439,-0.009 0.497,0.01 0.554,0.01C0.671,0.01 0.793,-0.07 0.793,-0.26L0.793,-0.69L0.623,-0.69L0.623,-0.26C0.623,-0.187 0.602,-0.155 0.553,-0.155C0.504,-0.155 0.483,-0.187 0.483,-0.26L0.483,-0.69L0.325,-0.69L0.325,-0.26C0.325,-0.187 0.304,-0.155 0.255,-0.155C0.206,-0.155 0.185,-0.187 0.185,-0.26L0.185,-0.69L0.015,-0.69L0.015,-0.26C0.015,-0.07 0.137,0.01 0.254,0.01Z" style="fill:rgb(255,41,117);fill-rule:nonzero;"/>
                </g>
            </g>
            <g transform="matrix(12.4818,0,0,12.4818,-3315.34,-1731.93)">
                <g transform="matrix(12,0,0,12,290.656,169.96)">
                    <path d="M0.015,-0L0.451,-0L0.451,-0.165L0.185,-0.165L0.185,-0.265L0.365,-0.265L0.365,-0.425L0.185,-0.425L0.185,-0.525L0.451,-0.525L0.451,-0.69L0.015,-0.69L0.015,-0Z" style="fill:rgb(239,121,0);fill-rule:nonzero;"/>
                </g>
                <g transform="matrix(12,0,0,12,296.248,169.96)">
                    <path d="M0.015,-0L0.185,-0L0.185,-0.185L0.187,-0.185C0.366,-0.186 0.485,-0.283 0.485,-0.435C0.485,-0.575 0.385,-0.671 0.25,-0.686C0.229,-0.688 0.207,-0.69 0.125,-0.69L0.015,-0.69L0.015,-0ZM0.185,-0.345L0.185,-0.53L0.187,-0.53C0.256,-0.53 0.315,-0.506 0.315,-0.437C0.315,-0.368 0.256,-0.345 0.187,-0.345L0.185,-0.345Z" style="fill:rgb(239,121,0);fill-rule:nonzero;"/>
                </g>
                <g transform="matrix(12,0,0,12,302.164,169.96)">
                    <path d="M0.366,0.015C0.568,0.015 0.728,-0.145 0.728,-0.346C0.728,-0.546 0.568,-0.705 0.366,-0.705C0.165,-0.705 0.006,-0.546 0.006,-0.346C0.006,-0.145 0.165,0.015 0.366,0.015ZM0.367,-0.151C0.261,-0.151 0.176,-0.238 0.176,-0.344C0.176,-0.449 0.261,-0.539 0.367,-0.539C0.471,-0.539 0.558,-0.449 0.558,-0.344C0.558,-0.238 0.471,-0.151 0.367,-0.151Z" style="fill:rgb(239,121,0);fill-rule:nonzero;"/>
                </g>
                <g transform="matrix(12,0,0,12,310.972,169.96)">
                    <path d="M0.381,-0L0.391,-0L0.391,-0.165L0.381,-0.165C0.324,-0.165 0.284,-0.176 0.252,-0.198C0.208,-0.228 0.176,-0.285 0.176,-0.345C0.176,-0.405 0.208,-0.462 0.252,-0.492C0.284,-0.514 0.324,-0.525 0.381,-0.525L0.391,-0.525L0.391,-0.69L0.381,-0.69C0.326,-0.69 0.292,-0.686 0.261,-0.678C0.115,-0.641 0.006,-0.506 0.006,-0.345C0.006,-0.186 0.114,-0.05 0.26,-0.012C0.292,-0.004 0.328,-0 0.381,-0Z" style="fill:rgb(239,121,0);fill-rule:nonzero;"/>
                </g>
                <g transform="matrix(12,0,0,12,315.808,169.96)">
                    <path d="M0.015,-0L0.185,-0L0.185,-0.265L0.385,-0.265L0.385,-0L0.555,-0L0.555,-0.69L0.385,-0.69L0.385,-0.425L0.185,-0.425L0.185,-0.69L0.015,-0.69L0.015,-0Z" style="fill:rgb(239,121,0);fill-rule:nonzero;"/>
                </g>
            </g>
        </g>
    </g>
</svg>
